<?xml version="1.0" standalone="no"?>
<!DOCTYPE svg PUBLIC "-//W3C//DTD SVG 20010904//EN"
 "http://www.w3.org/TR/2001/REC-SVG-20010904/DTD/svg10.dtd">
<svg version="1.0" xmlns="http://www.w3.org/2000/svg"
 width="270.000000pt" height="261.000000pt" viewBox="0 0 270.000000 261.000000"
 preserveAspectRatio="xMidYMid meet">

<g transform="translate(0.000000,261.000000) scale(0.100000,-0.100000)"
fill="#000000" stroke="none">
<path d="M1470 2552 c0 -4 19 -15 43 -25 68 -28 168 -109 288 -235 154 -161
192 -212 198 -270 14 -133 9 -161 -44 -265 -59 -116 -86 -150 -118 -145 -28 4
-46 41 -53 115 l-6 59 46 47 c69 70 79 105 86 286 0 12 33 -27 46 -55 9 -19
21 -34 26 -34 40 0 -292 367 -369 409 -28 14 -30 1 -4 -23 47 -43 94 -189 111
-349 12 -110 8 -166 -18 -237 -25 -69 -56 -79 -105 -32 -29 26 -29 26 -14 2
47 -74 64 -306 28 -385 -44 -98 -146 -149 -296 -149 -133 0 -232 42 -285 121
-23 33 -25 48 -28 158 -4 133 12 205 64 286 l25 40 -32 -16 c-17 -9 -33 -14
-37 -11 -3 3 0 6 7 6 7 0 3 8 -9 18 -16 13 -23 31 -26 67 -3 51 -9 83 -19 114
-3 10 1 30 8 45 14 26 14 25 21 -29 8 -73 32 -121 69 -136 36 -15 54 -6 82 42
27 46 28 178 1 228 -10 19 -15 43 -12 56 10 38 -18 57 -76 53 -26 -1 -48 -1
-49 2 -5 47 -4 82 3 86 11 7 10 44 -1 44 -31 0 -185 -287 -201 -376 -9 -52 6
-160 29 -203 15 -26 13 -167 -2 -211 -9 -27 -18 -36 -40 -38 -23 -3 -37 6 -77
49 -113 123 -139 210 -105 349 15 63 26 82 79 144 101 118 277 291 336 329 33
23 48 37 36 37 -39 0 -136 -85 -309 -272 -126 -135 -137 -151 -156 -213 -42
-135 -20 -285 58 -401 45 -67 83 -94 134 -94 59 0 81 27 92 117 l10 78 34 -62
c31 -58 34 -70 35 -162 2 -75 -2 -111 -15 -143 l-18 -43 0 58 c-1 72 -27 101
-97 111 -80 11 -98 7 -154 -31 -52 -35 -60 -37 -135 -38 -56 -1 -91 -6 -116
-19 -35 -18 -37 -18 -75 0 -67 32 -224 16 -224 -22 0 -12 5 -12 35 0 66 28
118 30 170 7 51 -23 80 -26 89 -12 12 18 103 31 153 21 47 -8 49 -8 103 34 30
23 60 45 66 49 17 10 123 -19 145 -39 19 -17 20 -26 14 -99 -8 -89 -24 -136
-25 -71 0 38 -1 38 -31 32 -17 -3 -38 -6 -46 -6 -9 0 -13 -6 -9 -15 3 -8 1
-15 -3 -15 -15 0 -21 29 -21 94 0 36 -6 70 -13 80 -12 17 -17 15 -55 -30 -23
-27 -42 -52 -42 -56 0 -3 10 -19 23 -35 40 -48 116 -207 105 -219 -3 -2 -20
18 -38 46 -76 119 -190 103 -223 -30 -13 -49 -17 -55 -42 -58 -31 -4 -45 11
-45 48 0 14 -9 40 -21 59 -19 31 -23 33 -63 29 l-43 -5 18 59 c9 33 24 70 33
82 14 22 13 23 -17 24 -17 0 -37 8 -43 16 -12 18 -41 21 -63 7 -12 -8 -21 -44
-35 -136 -2 -11 -4 -31 -5 -44 -1 -19 -5 -23 -25 -19 -32 6 -35 -3 -25 -89 13
-121 73 -280 165 -440 20 -34 34 -42 34 -20 0 7 6 22 14 33 14 19 15 18 43 -8
16 -16 34 -28 41 -28 15 0 16 -16 2 -25 -13 -8 -13 -58 1 -89 7 -13 24 -30 40
-37 52 -21 99 31 87 95 -4 22 0 24 67 34 39 6 78 14 88 17 14 6 16 -11 14
-183 -1 -199 1 -214 44 -225 18 -5 20 -2 14 16 -38 125 -31 603 11 761 18 67
95 236 138 304 l27 44 48 -45 c60 -56 138 -96 201 -104 69 -8 73 -12 79 -85 1
-5 5 -8 9 -8 4 0 6 15 4 34 -3 28 0 34 20 39 12 3 43 11 68 17 25 7 50 13 55
14 25 4 105 58 132 90 l30 34 59 -132 c65 -148 99 -247 86 -255 -26 -18 -52
-83 -59 -149 l-8 -72 -22 15 c-13 9 -23 25 -23 36 0 10 -4 19 -9 19 -5 0 -9
19 -8 43 0 50 -29 178 -48 204 -12 16 -13 15 -8 -9 4 -23 0 -29 -28 -41 -44
-18 -62 -41 -62 -78 0 -31 -6 -36 -25 -17 -18 18 -34 -2 -103 -137 -43 -85
-69 -125 -79 -123 -8 1 -20 -1 -27 -5 -9 -5 -28 24 -64 95 -28 57 -68 128 -87
158 -20 30 -35 59 -34 63 4 14 -26 37 -48 37 -12 0 -19 -4 -16 -9 3 -5 -5 -16
-19 -25 -19 -13 -25 -25 -25 -54 0 -20 -7 -50 -15 -65 -8 -16 -15 -43 -15 -60
0 -18 -2 -63 -4 -102 -3 -38 -5 -116 -5 -172 -1 -100 -2 -103 -23 -103 -22 -1
-21 -2 5 -16 35 -19 37 -60 5 -74 l-23 -9 23 0 c35 -1 25 -35 -11 -39 -24 -3
-27 -7 -21 -25 12 -40 37 -82 41 -70 2 6 -3 26 -12 43 -18 36 -19 35 13 44 17
6 22 3 23 -11 4 -40 6 -49 17 -76 15 -36 36 -36 27 1 l-7 27 24 -22 c26 -24
105 -63 128 -62 8 0 0 6 -19 14 -18 8 -56 38 -83 65 -57 57 -54 76 10 83 27 3
21 4 -20 5 -32 1 -58 7 -58 12 0 6 11 10 25 10 14 0 25 5 25 10 0 6 -13 10
-30 10 -25 0 -30 4 -30 24 0 24 0 24 47 10 25 -8 48 -12 51 -10 4 5 -64 36
-79 36 -18 0 -18 22 0 71 11 28 29 62 41 73 16 18 22 44 29 137 10 109 26 218
35 227 11 10 27 -16 87 -142 65 -138 73 -147 124 -138 15 2 36 36 78 125 62
129 83 165 93 154 9 -9 32 -155 40 -256 6 -67 14 -97 40 -148 44 -83 44 -99
-1 -107 -19 -4 -49 -13 -67 -21 -46 -20 -5 -20 52 0 53 19 50 19 50 -9 0 -22
-5 -23 -77 -30 -108 -9 -132 -8 -113 4 12 7 8 10 -15 10 -22 0 -26 -3 -18 -11
21 -21 -12 -69 -46 -69 -41 0 -56 22 -31 45 41 37 7 78 -49 60 -27 -8 -27 -29
1 -54 17 -17 19 -23 8 -36 -28 -34 -90 -4 -90 43 0 16 -6 22 -22 22 -17 0 -19
-3 -10 -9 19 -11 17 -24 -5 -32 -16 -7 -16 -8 3 -8 11 -1 31 -12 44 -26 13
-14 28 -25 34 -25 5 0 20 -9 32 -21 22 -21 64 -20 64 2 0 5 16 15 35 23 19 8
38 22 41 31 3 8 18 15 33 16 23 0 24 1 6 9 -13 5 12 9 73 11 89 4 93 3 88 -16
-3 -11 -6 -26 -6 -32 0 -7 -8 -13 -17 -13 -13 0 -14 3 -5 12 19 19 14 28 -12
28 -23 0 -24 -3 -19 -35 3 -19 2 -35 -3 -35 -5 0 -30 -20 -56 -45 -27 -25 -54
-45 -62 -45 -8 0 -17 -4 -21 -10 -8 -12 96 24 129 45 25 17 26 16 26 -2 0 -10
-7 -29 -16 -41 -18 -26 -17 -27 86 -6 41 8 83 15 92 15 10 0 20 4 23 10 4 5
17 9 30 9 28 0 41 15 20 24 -26 9 -17 21 37 49 47 25 53 26 69 11 21 -19 81
-10 77 11 -2 8 6 20 16 28 29 21 14 47 -28 47 -44 0 -54 -15 -27 -44 27 -29
26 -36 -3 -36 -18 0 -25 6 -28 22 -2 13 -10 24 -18 25 -93 10 -192 28 -196 35
-13 20 -4 100 15 144 12 26 40 65 63 86 l42 39 -68 67 -68 67 5 -60 c3 -33 11
-82 16 -109 17 -78 -7 -74 -29 4 -11 38 -14 200 -4 200 9 0 125 -94 153 -124
14 -14 29 -26 34 -26 6 0 19 -7 29 -17 19 -17 24 -8 8 17 -6 9 -5 17 3 22 8 5
18 -6 30 -30 l17 -37 -4 38 c-5 37 -4 38 22 35 22 -2 28 -9 33 -38 4 -19 7
-26 8 -14 0 11 8 29 17 40 15 18 15 17 10 -16 -5 -33 -5 -34 10 -15 8 11 20
19 26 17 6 -2 27 12 47 31 47 45 141 117 151 117 15 0 22 -85 11 -142 -12 -66
-41 -139 -48 -120 -3 7 0 25 6 40 9 23 32 182 27 189 -1 1 -34 -29 -73 -67
l-72 -70 55 -54 c33 -33 57 -67 60 -85 4 -17 8 -31 10 -31 2 0 25 19 50 43 58
53 78 91 68 126 -4 14 -8 28 -9 31 -1 3 -5 20 -9 37 -11 46 -26 41 -26 -9 0
-61 -6 -43 -14 40 -6 71 -6 73 19 82 34 13 43 39 19 57 -26 19 -171 14 -183
-6 -13 -21 -3 -38 31 -52 l31 -13 -39 -33 c-21 -19 -47 -38 -57 -44 -17 -9
-18 -8 -12 13 5 20 1 18 -25 -12 -31 -36 -37 -31 -20 17 10 27 9 27 -20 -7
-17 -19 -30 -29 -30 -22 0 17 28 72 48 95 8 9 11 17 6 17 -15 -1 -52 -33 -79
-69 -31 -43 -34 -17 -2 29 39 59 166 110 271 110 86 0 188 -34 231 -76 9 -9
19 -13 23 -9 7 7 1 11 -87 63 l-56 32 60 -6 c33 -3 73 -10 88 -15 26 -8 29 -6
43 26 8 19 14 40 14 48 0 7 5 18 11 24 6 6 8 16 5 22 -15 23 -115 81 -142 82
l-29 0 25 10 c30 12 91 4 132 -17 34 -17 49 -11 27 11 -16 16 -143 31 -182 21
-14 -3 -39 -18 -57 -32 -42 -36 -46 -26 -9 26 31 43 24 45 -20 6 -20 -18 -23
-18 -18 -3 18 46 17 50 -7 22 -15 -16 -31 -49 -38 -73 l-11 -44 -18 53 c-21
58 -29 71 -29 45 0 -15 -3 -15 -20 5 -23 29 -24 28 -5 -41 21 -79 18 -91 -10
-43 -50 83 -151 111 -249 69 l-39 -16 19 21 c10 11 32 28 48 36 20 10 25 17
17 23 -15 9 19 20 64 20 23 0 27 3 15 10 -8 5 -29 10 -45 10 -48 0 -114 54
-115 94 0 23 30 17 107 -20 l53 -25 33 25 c52 40 101 56 169 56 68 0 148 -30
181 -68 l18 -20 52 23 c29 12 67 25 85 29 l33 6 -19 -28 c-33 -44 -67 -72 -98
-78 -37 -7 -44 -14 -13 -14 31 0 64 -20 34 -20 -13 0 0 -11 34 -30 30 -17 55
-30 57 -30 6 0 23 110 27 173 2 37 3 67 2 67 -10 0 -120 -42 -152 -58 l-41
-21 -18 20 c-46 51 -147 78 -237 65 -24 -4 -70 -22 -100 -40 -50 -30 -58 -32
-76 -20 -32 23 -202 86 -217 80 -7 -3 -16 -26 -20 -51 -10 -67 -31 -56 -77 40
-39 80 -39 80 -24 125 11 32 15 38 16 21 1 -17 5 -22 17 -17 9 3 18 6 20 6 14
0 0 31 -18 41 -31 16 -38 28 -38 64 1 33 22 69 36 57 4 -4 3 0 -3 8 -8 10 -9
21 -3 30 7 11 10 12 10 2 0 -8 7 -11 18 -8 23 7 36 -2 56 -41 27 -53 74 -67
128 -39 15 8 37 12 50 10 17 -3 18 -2 6 3 -15 7 -11 15 27 54 40 42 45 53 50
106 3 33 10 75 15 94 6 19 10 62 10 97 0 105 -51 198 -188 348 -120 130 -218
219 -287 260 -46 27 -105 47 -105 36z m-446 -334 c8 -6 7 -8 -2 -8 -7 0 -10
-5 -6 -12 4 -6 3 -8 -3 -5 -13 8 -23 54 -14 63 3 3 8 -2 10 -13 2 -10 8 -21
15 -25z m-68 -5 c-10 -10 -19 5 -10 18 6 11 8 11 12 0 2 -7 1 -15 -2 -18z
m154 -59 c0 -15 -6 -24 -15 -24 -15 0 -21 40 -9 53 12 11 24 -3 24 -29z m-100
-8 c0 -9 -9 -14 -20 -13 -25 2 -26 14 -2 20 9 3 18 5 20 6 1 0 2 -5 2 -13z
m730 -436 c0 -23 -5 -30 -19 -30 -17 0 -18 3 -8 30 6 17 15 30 19 30 4 0 8
-13 8 -30z m-1082 -592 c-2 -13 -10 -23 -18 -23 -8 0 -16 10 -18 23 -3 17 2
22 18 22 16 0 21 -5 18 -22z m-311 -100 c13 -15 13 -18 2 -18 -8 0 -4 -8 11
-20 21 -16 23 -20 8 -25 -31 -12 -63 -2 -60 20 2 11 5 43 7 70 5 70 8 76 12
30 3 -22 12 -48 20 -57z m61 75 c-4 -22 -22 -20 -26 1 -2 10 3 16 13 16 10 0
15 -7 13 -17z m358 -29 c20 -47 10 -87 -28 -119 -37 -31 -79 -32 -114 -1 l-28
23 32 -5 c54 -7 80 5 103 49 13 26 18 50 15 65 -9 36 3 29 20 -12z m-182 -63
c-6 -6 -11 1 -18 29 l-7 25 15 -25 c8 -14 12 -27 10 -29z m1441 29 c3 -5 -1
-10 -9 -10 -9 0 -16 -3 -16 -8 0 -4 -22 -15 -49 -25 -45 -16 -114 -78 -148
-133 -11 -18 -12 -18 -12 4 -2 58 53 131 124 163 44 20 100 25 110 9z m-1484
-27 c22 -58 86 -103 147 -103 15 0 45 9 66 19 l37 20 -6 -67 c-4 -37 -12 -78
-19 -92 -14 -32 -69 -68 -115 -76 -20 -4 -47 -15 -60 -25 -28 -23 -89 -25
-117 -5 -18 14 -18 15 0 22 10 4 27 2 37 -4 10 -7 23 -12 28 -12 20 0 131 106
131 125 0 17 -27 0 -38 -24 -16 -36 -64 -58 -100 -45 -36 13 -37 26 -2 46 35
20 59 63 43 79 -20 20 -92 30 -133 19 -46 -12 -64 -32 -55 -60 8 -24 60 -60
88 -60 25 0 21 -29 -7 -42 -32 -14 -87 16 -97 52 -7 25 -7 25 -8 2 -1 -13 11
-34 25 -47 l27 -25 -38 0 c-29 0 -44 7 -71 34 -60 60 -42 107 80 199 20 16 44
44 53 63 15 30 21 34 55 34 33 0 40 -4 49 -27z m1359 -87 c0 -13 -65 -106 -68
-98 -3 11 22 66 40 90 10 11 28 17 28 8z m200 -31 c0 -19 -20 -29 -32 -17 -15
15 -2 43 17 36 8 -3 15 -12 15 -19z m378 -2 c-5 -25 -28 -28 -28 -4 0 12 6 21
16 21 9 0 14 -7 12 -17z m-244 -8 c3 -9 -1 -18 -10 -22 -19 -7 -28 2 -21 22 8
19 23 19 31 0z m-727 -27 c-3 -8 -6 -5 -6 6 -1 11 2 17 5 13 3 -3 4 -12 1 -19z
m-1012 2 c4 -6 -11 -10 -37 -9 -33 0 -38 2 -23 9 28 12 53 12 60 0z m1033
-100 c0 -22 -1 -22 -8 5 -4 17 -8 41 -8 55 0 22 1 22 8 -5 4 -16 8 -41 8 -55z
m507 51 c-33 -15 -75 -45 -93 -65 -17 -20 -32 -32 -32 -27 0 6 17 28 38 51 22
22 37 40 35 40 -16 0 -85 -44 -97 -62 -23 -32 -28 -17 -8 23 24 47 72 69 152
68 l65 0 -60 -28z m-1490 -91 c3 -5 -1 -10 -9 -10 -8 0 -18 5 -21 10 -3 6 1
10 9 10 8 0 18 -4 21 -10z m8 -130 c7 -25 -5 -39 -41 -49 -27 -8 -34 -7 -42 9
-14 26 -12 46 5 64 19 19 71 4 78 -24z m732 -250 c4 -6 -5 -10 -20 -10 -15 0
-24 4 -20 10 3 6 12 10 20 10 8 0 17 -4 20 -10z m675 -49 c0 -16 -28 -20 -40
-5 -10 12 -8 14 14 14 14 0 26 -4 26 -9z m-206 -12 c11 -1 3 -5 -19 -10 -43
-10 -65 -6 -65 12 0 8 11 9 31 5 17 -3 41 -6 53 -7z m46 -56 c-56 -31 -80 -35
-80 -14 0 5 27 16 60 25 33 10 58 21 55 26 -3 6 1 7 10 4 12 -5 -1 -16 -45
-41z m-38 20 c-24 -8 -50 -12 -60 -7 -13 6 -9 9 18 14 66 14 89 10 42 -7z
m-163 -39 c1 11 4 17 7 13 3 -3 3 -15 -1 -28 -6 -17 -9 -19 -16 -8 -5 8 -8 21
-8 29 0 10 3 8 9 -5 8 -19 9 -19 9 -1z"/>
<path d="M1486 2215 c-39 -42 -49 -152 -20 -225 45 -113 144 -51 144 90 0 128
-65 198 -124 135z m44 -61 c0 -15 -6 -24 -15 -24 -15 0 -21 40 -9 53 12 11 24
-3 24 -29z"/>
<path d="M1314 1985 c0 -60 1 -84 3 -52 2 32 2 81 0 110 -2 29 -3 3 -3 -58z"/>
<path d="M2060 1924 c0 -8 5 -12 10 -9 6 4 8 11 5 16 -9 14 -15 11 -15 -7z"/>
<path d="M2470 1814 c-8 -9 -9 -14 -2 -14 6 0 17 -3 26 -6 10 -4 16 -1 16 9 0
21 -26 29 -40 11z"/>
<path d="M2100 1770 c-8 -5 -10 -10 -5 -10 6 0 17 5 25 10 8 5 11 10 5 10 -5
0 -17 -5 -25 -10z"/>
<path d="M1236 1750 c-46 -14 -76 -49 -76 -88 0 -44 51 -98 103 -107 20 -4 37
-10 37 -14 0 -19 -52 -53 -88 -58 -72 -10 -139 52 -152 142 -5 28 -9 35 -14
24 -21 -48 55 -171 113 -184 22 -5 31 -15 40 -46 29 -98 181 -108 225 -15 9
19 16 38 16 44 0 5 11 13 25 16 72 18 137 131 116 201 -9 29 -9 28 -10 -14 -3
-125 -114 -208 -200 -149 -39 26 -51 48 -26 48 26 0 92 38 109 62 38 53 8 117
-65 138 -40 12 -113 12 -153 0z m50 -69 c-7 -10 -76 -22 -88 -15 -19 12 6 24
48 24 25 0 43 -4 40 -9z m144 -16 c0 -8 -2 -15 -4 -15 -2 0 -11 -3 -20 -6 -10
-4 -16 -1 -16 9 0 14 13 24 33 26 4 1 7 -6 7 -14z m-172 -266 c13 -16 21 -29
19 -29 -19 0 -40 16 -52 41 -18 34 -19 63 -2 35 7 -10 23 -32 35 -47z m162 41
c0 -23 -42 -70 -62 -70 -7 0 -3 7 8 15 12 8 27 28 34 45 15 35 20 38 20 10z"/>
<path d="M2550 1643 c0 -5 5 -15 10 -23 8 -12 10 -11 10 8 0 12 -4 22 -10 22
-5 0 -10 -3 -10 -7z"/>
<path d="M2510 1618 c0 -15 -5 -16 -145 -20 -82 -3 -106 -13 -77 -34 29 -20
247 20 247 45 0 8 -6 16 -12 19 -7 2 -13 -3 -13 -10z"/>
<path d="M1768 1443 c7 -3 16 -2 19 1 4 3 -2 6 -13 5 -11 0 -14 -3 -6 -6z"/>
<path d="M580 1279 c-16 -29 3 -42 50 -33 43 7 47 11 34 32 -17 27 -70 28 -84
1z"/>
<path d="M362 1268 c-23 -23 -13 -38 23 -38 22 0 35 5 35 13 0 16 -20 37 -35
37 -6 0 -16 -5 -23 -12z"/>
<path d="M1660 1015 c0 -5 5 -17 10 -25 5 -8 10 -10 10 -5 0 6 -5 17 -10 25
-5 8 -10 11 -10 5z"/>
<path d="M1692 920 c0 -14 2 -19 5 -12 2 6 2 18 0 25 -3 6 -5 1 -5 -13z"/>
<path d="M1090 837 c0 -3 14 -35 30 -72 35 -78 35 -75 13 -75 -14 0 -14 -2 2
-20 18 -20 18 -21 -1 -14 -19 7 -19 7 0 -14 22 -25 23 -23 -24 -48 l-35 -19
40 -3 c21 -2 54 -1 73 3 28 5 32 9 26 28 -23 74 -124 263 -124 234z"/>
<path d="M1405 710 c-65 -135 -65 -140 12 -140 23 0 48 -3 57 -6 9 -3 16 -2
16 4 0 5 -19 17 -41 26 l-42 17 22 23 c25 27 27 38 5 29 -14 -5 -15 -3 -5 15
7 13 8 22 2 22 -5 0 1 25 15 55 14 30 24 60 22 66 -2 6 -30 -44 -63 -111z"/>
<path d="M2460 796 c0 -2 7 -9 15 -16 9 -7 15 -8 15 -2 0 5 -7 12 -15 16 -8 3
-15 4 -15 2z"/>
<path d="M1292 740 c0 -19 2 -27 5 -17 2 9 2 25 0 35 -3 9 -5 1 -5 -18z"/>
<path d="M2427 716 c13 -27 19 -34 21 -21 2 10 -6 27 -18 39 l-21 21 18 -39z"/>
<path d="M2398 686 c17 -36 32 -47 32 -23 0 8 -11 24 -24 36 l-24 23 16 -36z"/>
<path d="M2350 612 c0 -64 13 -76 25 -23 4 19 1 40 -9 58 -15 28 -15 27 -16
-35z"/>
<path d="M1098 543 c-54 -34 -62 -91 -19 -134 39 -38 74 -38 113 1 26 27 30
36 25 67 -11 66 -69 98 -119 66z m57 -23 c3 -5 -1 -10 -9 -10 -8 0 -18 5 -21
10 -3 6 1 10 9 10 8 0 18 -4 21 -10z m8 -107 c-21 -16 -35 -16 -57 0 -15 11
-11 13 29 12 38 0 43 -2 28 -12z"/>
<path d="M1359 531 c-72 -72 -3 -186 84 -139 33 17 46 39 46 78 0 39 -13 61
-46 78 -34 18 -52 14 -84 -17z m86 -11 c3 -5 -1 -10 -9 -10 -9 0 -16 5 -16 10
0 6 4 10 9 10 6 0 13 -4 16 -10z m25 -40 c0 -5 -4 -10 -10 -10 -5 0 -10 5 -10
10 0 6 5 10 10 10 6 0 10 -4 10 -10z m-34 -72 c-20 -11 -58 -7 -63 7 -2 7 13
9 39 7 32 -4 38 -6 24 -14z"/>
<path d="M1830 486 c0 -8 7 -16 15 -20 13 -4 14 -2 5 14 -13 23 -20 26 -20 6z"/>
<path d="M2022 488 c-6 -6 -12 -19 -12 -27 0 -13 2 -13 16 1 9 9 15 21 13 27
-3 9 -8 8 -17 -1z"/>
<path d="M1735 435 c-66 -66 14 -181 91 -131 47 32 50 90 7 138 -23 26 -69 23
-98 -7z m53 -17 c-6 -18 -28 -21 -28 -4 0 9 7 16 16 16 9 0 14 -5 12 -12z m52
-38 c0 -5 -4 -10 -10 -10 -5 0 -10 5 -10 10 0 6 5 10 10 10 6 0 10 -4 10 -10z
m-35 -56 c9 3 13 2 10 -4 -13 -22 -85 4 -85 31 0 5 13 0 29 -12 17 -12 36 -19
46 -15z"/>
<path d="M2035 437 c-36 -31 -39 -91 -6 -118 24 -20 66 -25 75 -10 3 4 -5 6
-17 4 -14 -3 -29 2 -37 12 -12 14 -10 15 13 6 20 -8 31 -6 51 10 24 19 25 19
20 2 -4 -14 -2 -13 15 5 16 19 18 27 9 52 -20 60 -77 77 -123 37z m80 -17 c3
-5 -3 -10 -14 -10 -12 0 -21 5 -21 10 0 6 6 10 14 10 8 0 18 -4 21 -10z"/>
<path d="M1453 263 c9 -2 25 -2 35 0 9 3 1 5 -18 5 -19 0 -27 -2 -17 -5z"/>
<path d="M2005 260 c-3 -5 -2 -10 4 -10 5 0 13 5 16 10 3 6 2 10 -4 10 -5 0
-13 -4 -16 -10z"/>
<path d="M850 213 c0 -12 5 -25 10 -28 13 -8 13 15 0 35 -8 12 -10 11 -10 -7z"/>
</g>
</svg>
